<?xml version="1.0" encoding="UTF-8" standalone="no"?>
<!DOCTYPE svg PUBLIC "-//W3C//DTD SVG 1.1//EN"
 "http://www.w3.org/Graphics/SVG/1.1/DTD/svg11.dtd">
<!-- Generated by graphviz version 2.47.3 (20210619.1520)
 -->
<!-- Title: dependencies Pages: 1 -->
<svg width="638pt" height="247pt"
 viewBox="0.00 0.00 638.00 246.80" xmlns="http://www.w3.org/2000/svg" xmlns:xlink="http://www.w3.org/1999/xlink">
<g id="graph0" class="graph" transform="scale(1 1) rotate(0) translate(4 242.8)">
<title>dependencies</title>
<polygon fill="white" stroke="transparent" points="-4,4 -4,-242.8 634,-242.8 634,4 -4,4"/>
<text text-anchor="middle" x="315" y="-8.2" font-family="sans-serif" font-size="14.00">dependencies</text>
<g id="clust1" class="cluster">
<title>cluster_UserModule</title>
<polygon fill="none" stroke="black" stroke-dasharray="1,5" points="8,-32.8 8,-230.8 622,-230.8 622,-32.8 8,-32.8"/>
</g>
<g id="clust5" class="cluster">
<title>cluster_UserModule_exports</title>
<polygon fill="none" stroke="black" points="248,-170.8 248,-222.8 398,-222.8 398,-170.8 248,-170.8"/>
</g>
<g id="clust2" class="cluster">
<title>cluster_UserModule_declarations</title>
<polygon fill="none" stroke="black" points="468,-40.8 468,-92.8 614,-92.8 614,-40.8 468,-40.8"/>
</g>
<g id="clust4" class="cluster">
<title>cluster_UserModule_imports</title>
<polygon fill="none" stroke="black" points="346,-40.8 346,-92.8 460,-92.8 460,-40.8 346,-40.8"/>
</g>
<g id="clust7" class="cluster">
<title>cluster_UserModule_providers</title>
<polygon fill="none" stroke="black" points="16,-40.8 16,-92.8 338,-92.8 338,-40.8 16,-40.8"/>
</g>
<!-- UserListComponent -->
<g id="node1" class="node">
<title>UserListComponent</title>
<polygon fill="#ffffb3" stroke="black" points="605.54,-84.8 476.46,-84.8 476.46,-48.8 605.54,-48.8 605.54,-84.8"/>
<text text-anchor="middle" x="541" y="-62.6" font-family="Times,serif" font-size="14.00">UserListComponent</text>
</g>
<!-- UserModule -->
<g id="node2" class="node">
<title>UserModule</title>
<polygon fill="#8dd3c7" stroke="black" points="365.98,-149.8 362.98,-153.8 341.98,-153.8 338.98,-149.8 280.02,-149.8 280.02,-113.8 365.98,-113.8 365.98,-149.8"/>
<text text-anchor="middle" x="323" y="-127.6" font-family="Times,serif" font-size="14.00">UserModule</text>
</g>
<!-- UserListComponent&#45;&gt;UserModule -->
<g id="edge1" class="edge">
<title>UserListComponent&#45;&gt;UserModule</title>
<path fill="none" stroke="black" d="M541,-84.91C541,-104.14 541,-131.8 541,-131.8 541,-131.8 376.07,-131.8 376.07,-131.8"/>
<polygon fill="black" stroke="black" points="376.07,-128.3 366.07,-131.8 376.07,-135.3 376.07,-128.3"/>
</g>
<!-- UserListComponent  -->
<g id="node4" class="node">
<title>UserListComponent </title>
<polygon fill="#fb8072" stroke="black" points="389.54,-214.8 256.46,-214.8 256.46,-178.8 389.54,-178.8 389.54,-214.8"/>
<text text-anchor="middle" x="323" y="-192.6" font-family="Times,serif" font-size="14.00">UserListComponent </text>
</g>
<!-- UserModule&#45;&gt;UserListComponent  -->
<g id="edge3" class="edge">
<title>UserModule&#45;&gt;UserListComponent </title>
<path fill="none" stroke="black" stroke-dasharray="5,2" d="M323,-149.91C323,-149.91 323,-168.79 323,-168.79"/>
<polygon fill="black" stroke="black" points="319.5,-168.79 323,-178.79 326.5,-168.79 319.5,-168.79"/>
</g>
<!-- SharedModule -->
<g id="node3" class="node">
<title>SharedModule</title>
<polygon fill="#8dd3c7" stroke="black" points="452.42,-84.8 449.42,-88.8 428.42,-88.8 425.42,-84.8 353.58,-84.8 353.58,-48.8 452.42,-48.8 452.42,-84.8"/>
<text text-anchor="middle" x="403" y="-62.6" font-family="Times,serif" font-size="14.00">SharedModule</text>
</g>
<!-- SharedModule&#45;&gt;UserModule -->
<g id="edge2" class="edge">
<title>SharedModule&#45;&gt;UserModule</title>
<path fill="none" stroke="black" d="M359.89,-84.91C359.89,-84.91 359.89,-103.79 359.89,-103.79"/>
<polygon fill="black" stroke="black" points="356.39,-103.79 359.89,-113.79 363.39,-103.79 356.39,-103.79"/>
</g>
<!-- SecurityInterceptor -->
<g id="node5" class="node">
<title>SecurityInterceptor</title>
<ellipse fill="#fdb462" stroke="black" cx="244" cy="-66.8" rx="85.65" ry="18"/>
<text text-anchor="middle" x="244" y="-62.6" font-family="Times,serif" font-size="14.00">SecurityInterceptor</text>
</g>
<!-- SecurityInterceptor&#45;&gt;UserModule -->
<g id="edge4" class="edge">
<title>SecurityInterceptor&#45;&gt;UserModule</title>
<path fill="none" stroke="black" d="M304.79,-79.64C304.79,-79.64 304.79,-103.32 304.79,-103.32"/>
<polygon fill="black" stroke="black" points="301.29,-103.32 304.79,-113.32 308.29,-103.32 301.29,-103.32"/>
</g>
<!-- UserService -->
<g id="node6" class="node">
<title>UserService</title>
<ellipse fill="#fdb462" stroke="black" cx="82" cy="-66.8" rx="58.44" ry="18"/>
<text text-anchor="middle" x="82" y="-62.6" font-family="Times,serif" font-size="14.00">UserService</text>
</g>
<!-- UserService&#45;&gt;UserModule -->
<g id="edge5" class="edge">
<title>UserService&#45;&gt;UserModule</title>
<path fill="none" stroke="black" d="M82,-84.91C82,-104.14 82,-131.8 82,-131.8 82,-131.8 269.91,-131.8 269.91,-131.8"/>
<polygon fill="black" stroke="black" points="269.91,-135.3 279.91,-131.8 269.91,-128.3 269.91,-135.3"/>
</g>
</g>
</svg>
