<?xml version="1.0" encoding="UTF-8" standalone="no"?>
<!DOCTYPE svg PUBLIC "-//W3C//DTD SVG 1.1//EN"
 "http://www.w3.org/Graphics/SVG/1.1/DTD/svg11.dtd">
<!-- Generated by graphviz version 2.47.3 (20210619.1520)
 -->
<!-- Title: dependencies Pages: 1 -->
<svg width="448pt" height="247pt"
 viewBox="0.00 0.00 448.00 246.80" xmlns="http://www.w3.org/2000/svg" xmlns:xlink="http://www.w3.org/1999/xlink">
<g id="graph0" class="graph" transform="scale(1 1) rotate(0) translate(4 242.8)">
<title>dependencies</title>
<polygon fill="white" stroke="transparent" points="-4,4 -4,-242.8 444,-242.8 444,4 -4,4"/>
<text text-anchor="middle" x="220" y="-8.2" font-family="sans-serif" font-size="14.00">dependencies</text>
<g id="clust1" class="cluster">
<title>cluster_UserModule</title>
<polygon fill="none" stroke="black" stroke-dasharray="1,5" points="8,-32.8 8,-230.8 432,-230.8 432,-32.8 8,-32.8"/>
</g>
<g id="clust2" class="cluster">
<title>cluster_UserModule_declarations</title>
<polygon fill="none" stroke="black" points="278,-40.8 278,-92.8 424,-92.8 424,-40.8 278,-40.8"/>
</g>
<g id="clust4" class="cluster">
<title>cluster_UserModule_imports</title>
<polygon fill="none" stroke="black" points="156,-40.8 156,-92.8 270,-92.8 270,-40.8 156,-40.8"/>
</g>
<g id="clust5" class="cluster">
<title>cluster_UserModule_exports</title>
<polygon fill="none" stroke="black" points="138,-170.8 138,-222.8 288,-222.8 288,-170.8 138,-170.8"/>
</g>
<g id="clust7" class="cluster">
<title>cluster_UserModule_providers</title>
<polygon fill="none" stroke="black" points="16,-40.8 16,-92.8 148,-92.8 148,-40.8 16,-40.8"/>
</g>
<!-- UserListComponent -->
<g id="node1" class="node">
<title>UserListComponent</title>
<polygon fill="#ffffb3" stroke="black" points="415.54,-84.8 286.46,-84.8 286.46,-48.8 415.54,-48.8 415.54,-84.8"/>
<text text-anchor="middle" x="351" y="-62.6" font-family="Times,serif" font-size="14.00">UserListComponent</text>
</g>
<!-- UserModule -->
<g id="node2" class="node">
<title>UserModule</title>
<polygon fill="#8dd3c7" stroke="black" points="255.98,-149.8 252.98,-153.8 231.98,-153.8 228.98,-149.8 170.02,-149.8 170.02,-113.8 255.98,-113.8 255.98,-149.8"/>
<text text-anchor="middle" x="213" y="-127.6" font-family="Times,serif" font-size="14.00">UserModule</text>
</g>
<!-- UserListComponent&#45;&gt;UserModule -->
<g id="edge1" class="edge">
<title>UserListComponent&#45;&gt;UserModule</title>
<path fill="none" stroke="black" d="M351,-84.91C351,-104.14 351,-131.8 351,-131.8 351,-131.8 266.29,-131.8 266.29,-131.8"/>
<polygon fill="black" stroke="black" points="266.29,-128.3 256.29,-131.8 266.29,-135.3 266.29,-128.3"/>
</g>
<!-- UserListComponent  -->
<g id="node4" class="node">
<title>UserListComponent </title>
<polygon fill="#fb8072" stroke="black" points="279.54,-214.8 146.46,-214.8 146.46,-178.8 279.54,-178.8 279.54,-214.8"/>
<text text-anchor="middle" x="213" y="-192.6" font-family="Times,serif" font-size="14.00">UserListComponent </text>
</g>
<!-- UserModule&#45;&gt;UserListComponent  -->
<g id="edge3" class="edge">
<title>UserModule&#45;&gt;UserListComponent </title>
<path fill="none" stroke="black" stroke-dasharray="5,2" d="M213,-149.91C213,-149.91 213,-168.79 213,-168.79"/>
<polygon fill="black" stroke="black" points="209.5,-168.79 213,-178.79 216.5,-168.79 209.5,-168.79"/>
</g>
<!-- SharedModule -->
<g id="node3" class="node">
<title>SharedModule</title>
<polygon fill="#8dd3c7" stroke="black" points="262.42,-84.8 259.42,-88.8 238.42,-88.8 235.42,-84.8 163.58,-84.8 163.58,-48.8 262.42,-48.8 262.42,-84.8"/>
<text text-anchor="middle" x="213" y="-62.6" font-family="Times,serif" font-size="14.00">SharedModule</text>
</g>
<!-- SharedModule&#45;&gt;UserModule -->
<g id="edge2" class="edge">
<title>SharedModule&#45;&gt;UserModule</title>
<path fill="none" stroke="black" d="M213,-84.91C213,-84.91 213,-103.79 213,-103.79"/>
<polygon fill="black" stroke="black" points="209.5,-103.79 213,-113.79 216.5,-103.79 209.5,-103.79"/>
</g>
<!-- UserService -->
<g id="node5" class="node">
<title>UserService</title>
<ellipse fill="#fdb462" stroke="black" cx="82" cy="-66.8" rx="58.44" ry="18"/>
<text text-anchor="middle" x="82" y="-62.6" font-family="Times,serif" font-size="14.00">UserService</text>
</g>
<!-- UserService&#45;&gt;UserModule -->
<g id="edge4" class="edge">
<title>UserService&#45;&gt;UserModule</title>
<path fill="none" stroke="black" d="M82,-84.91C82,-104.14 82,-131.8 82,-131.8 82,-131.8 159.74,-131.8 159.74,-131.8"/>
<polygon fill="black" stroke="black" points="159.74,-135.3 169.74,-131.8 159.74,-128.3 159.74,-135.3"/>
</g>
</g>
</svg>
