<?xml version="1.0" encoding="UTF-8" standalone="no"?>
<!DOCTYPE svg PUBLIC "-//W3C//DTD SVG 1.1//EN"
 "http://www.w3.org/Graphics/SVG/1.1/DTD/svg11.dtd">
<!-- Generated by graphviz version 2.47.3 (20210619.1520)
 -->
<!-- Title: dependencies Pages: 1 -->
<svg width="340pt" height="174pt"
 viewBox="0.00 0.00 340.00 173.80" xmlns="http://www.w3.org/2000/svg" xmlns:xlink="http://www.w3.org/1999/xlink">
<g id="graph0" class="graph" transform="scale(1 1) rotate(0) translate(4 169.8)">
<title>dependencies</title>
<polygon fill="white" stroke="transparent" points="-4,4 -4,-169.8 336,-169.8 336,4 -4,4"/>
<text text-anchor="middle" x="166" y="-8.2" font-family="sans-serif" font-size="14.00">dependencies</text>
<g id="clust1" class="cluster">
<title>cluster_ChampaingModule</title>
<polygon fill="none" stroke="black" stroke-dasharray="1,5" points="8,-32.8 8,-157.8 324,-157.8 324,-32.8 8,-32.8"/>
</g>
<g id="clust2" class="cluster">
<title>cluster_ChampaingModule_declarations</title>
<polygon fill="none" stroke="black" points="138,-40.8 138,-92.8 316,-92.8 316,-40.8 138,-40.8"/>
</g>
<g id="clust4" class="cluster">
<title>cluster_ChampaingModule_imports</title>
<polygon fill="none" stroke="black" points="16,-40.8 16,-92.8 130,-92.8 130,-40.8 16,-40.8"/>
</g>
<!-- CampagneListComponent -->
<g id="node1" class="node">
<title>CampagneListComponent</title>
<polygon fill="#ffffb3" stroke="black" points="308.48,-84.8 145.52,-84.8 145.52,-48.8 308.48,-48.8 308.48,-84.8"/>
<text text-anchor="middle" x="227" y="-62.6" font-family="Times,serif" font-size="14.00">CampagneListComponent</text>
</g>
<!-- ChampaingModule -->
<g id="node2" class="node">
<title>ChampaingModule</title>
<polygon fill="#8dd3c7" stroke="black" points="214.1,-149.8 211.1,-153.8 190.1,-153.8 187.1,-149.8 89.9,-149.8 89.9,-113.8 214.1,-113.8 214.1,-149.8"/>
<text text-anchor="middle" x="152" y="-127.6" font-family="Times,serif" font-size="14.00">ChampaingModule</text>
</g>
<!-- CampagneListComponent&#45;&gt;ChampaingModule -->
<g id="edge1" class="edge">
<title>CampagneListComponent&#45;&gt;ChampaingModule</title>
<path fill="none" stroke="black" d="M179.78,-84.91C179.78,-84.91 179.78,-103.79 179.78,-103.79"/>
<polygon fill="black" stroke="black" points="176.28,-103.79 179.78,-113.79 183.28,-103.79 176.28,-103.79"/>
</g>
<!-- SharedModule -->
<g id="node3" class="node">
<title>SharedModule</title>
<polygon fill="#8dd3c7" stroke="black" points="122.42,-84.8 119.42,-88.8 98.42,-88.8 95.42,-84.8 23.58,-84.8 23.58,-48.8 122.42,-48.8 122.42,-84.8"/>
<text text-anchor="middle" x="73" y="-62.6" font-family="Times,serif" font-size="14.00">SharedModule</text>
</g>
<!-- SharedModule&#45;&gt;ChampaingModule -->
<g id="edge2" class="edge">
<title>SharedModule&#45;&gt;ChampaingModule</title>
<path fill="none" stroke="black" d="M106.08,-84.91C106.08,-84.91 106.08,-103.79 106.08,-103.79"/>
<polygon fill="black" stroke="black" points="102.58,-103.79 106.08,-113.79 109.58,-103.79 102.58,-103.79"/>
</g>
</g>
</svg>
