<?xml version="1.0" encoding="UTF-8" standalone="no"?>
<!DOCTYPE svg PUBLIC "-//W3C//DTD SVG 1.1//EN"
 "http://www.w3.org/Graphics/SVG/1.1/DTD/svg11.dtd">
<!-- Generated by graphviz version 2.47.3 (20210619.1520)
 -->
<!-- Title: dependencies Pages: 1 -->
<svg width="258pt" height="247pt"
 viewBox="0.00 0.00 258.00 246.80" xmlns="http://www.w3.org/2000/svg" xmlns:xlink="http://www.w3.org/1999/xlink">
<g id="graph0" class="graph" transform="scale(1 1) rotate(0) translate(4 242.8)">
<title>dependencies</title>
<polygon fill="white" stroke="transparent" points="-4,4 -4,-242.8 254,-242.8 254,4 -4,4"/>
<text text-anchor="middle" x="125" y="-8.2" font-family="sans-serif" font-size="14.00">dependencies</text>
<g id="clust1" class="cluster">
<title>cluster_AdminModule</title>
<polygon fill="none" stroke="black" stroke-dasharray="1,5" points="8,-32.8 8,-230.8 242,-230.8 242,-32.8 8,-32.8"/>
</g>
<g id="clust3" class="cluster">
<title>cluster_AdminModule_imports</title>
<polygon fill="none" stroke="black" points="16,-40.8 16,-92.8 234,-92.8 234,-40.8 16,-40.8"/>
</g>
<g id="clust4" class="cluster">
<title>cluster_AdminModule_exports</title>
<polygon fill="none" stroke="black" points="70,-170.8 70,-222.8 176,-222.8 176,-170.8 70,-170.8"/>
</g>
<!-- SharedModule -->
<g id="node1" class="node">
<title>SharedModule</title>
<polygon fill="#8dd3c7" stroke="black" points="226.42,-84.8 223.42,-88.8 202.42,-88.8 199.42,-84.8 127.58,-84.8 127.58,-48.8 226.42,-48.8 226.42,-84.8"/>
<text text-anchor="middle" x="177" y="-62.6" font-family="Times,serif" font-size="14.00">SharedModule</text>
</g>
<!-- AdminModule -->
<g id="node3" class="node">
<title>AdminModule</title>
<polygon fill="#8dd3c7" stroke="black" points="172.44,-149.8 169.44,-153.8 148.44,-153.8 145.44,-149.8 73.56,-149.8 73.56,-113.8 172.44,-113.8 172.44,-149.8"/>
<text text-anchor="middle" x="123" y="-127.6" font-family="Times,serif" font-size="14.00">AdminModule</text>
</g>
<!-- SharedModule&#45;&gt;AdminModule -->
<g id="edge1" class="edge">
<title>SharedModule&#45;&gt;AdminModule</title>
<path fill="none" stroke="black" d="M150,-84.91C150,-84.91 150,-103.79 150,-103.79"/>
<polygon fill="black" stroke="black" points="146.5,-103.79 150,-113.79 153.5,-103.79 146.5,-103.79"/>
</g>
<!-- UserModule -->
<g id="node2" class="node">
<title>UserModule</title>
<polygon fill="#8dd3c7" stroke="black" points="109.98,-84.8 106.98,-88.8 85.98,-88.8 82.98,-84.8 24.02,-84.8 24.02,-48.8 109.98,-48.8 109.98,-84.8"/>
<text text-anchor="middle" x="67" y="-62.6" font-family="Times,serif" font-size="14.00">UserModule</text>
</g>
<!-- UserModule&#45;&gt;AdminModule -->
<g id="edge2" class="edge">
<title>UserModule&#45;&gt;AdminModule</title>
<path fill="none" stroke="black" d="M91.88,-84.91C91.88,-84.91 91.88,-103.79 91.88,-103.79"/>
<polygon fill="black" stroke="black" points="88.38,-103.79 91.88,-113.79 95.38,-103.79 88.38,-103.79"/>
</g>
<!-- UserModule  -->
<g id="node4" class="node">
<title>UserModule </title>
<polygon fill="#fb8072" stroke="black" points="167.98,-214.8 78.02,-214.8 78.02,-178.8 167.98,-178.8 167.98,-214.8"/>
<text text-anchor="middle" x="123" y="-192.6" font-family="Times,serif" font-size="14.00">UserModule </text>
</g>
<!-- AdminModule&#45;&gt;UserModule  -->
<g id="edge3" class="edge">
<title>AdminModule&#45;&gt;UserModule </title>
<path fill="none" stroke="black" stroke-dasharray="5,2" d="M123,-149.91C123,-149.91 123,-168.79 123,-168.79"/>
<polygon fill="black" stroke="black" points="119.5,-168.79 123,-178.79 126.5,-168.79 119.5,-168.79"/>
</g>
</g>
</svg>
