<?xml version="1.0" encoding="UTF-8" standalone="no"?>
<!DOCTYPE svg PUBLIC "-//W3C//DTD SVG 1.1//EN"
 "http://www.w3.org/Graphics/SVG/1.1/DTD/svg11.dtd">
<!-- Generated by graphviz version 2.47.3 (20210619.1520)
 -->
<!-- Title: dependencies Pages: 1 -->
<svg width="1090pt" height="247pt"
 viewBox="0.00 0.00 1090.00 246.80" xmlns="http://www.w3.org/2000/svg" xmlns:xlink="http://www.w3.org/1999/xlink">
<g id="graph0" class="graph" transform="scale(1 1) rotate(0) translate(4 242.8)">
<title>dependencies</title>
<polygon fill="white" stroke="transparent" points="-4,4 -4,-242.8 1086,-242.8 1086,4 -4,4"/>
<text text-anchor="middle" x="541" y="-8.2" font-family="sans-serif" font-size="14.00">dependencies</text>
<g id="clust1" class="cluster">
<title>cluster_AppModule</title>
<polygon fill="none" stroke="black" stroke-dasharray="1,5" points="8,-32.8 8,-230.8 1074,-230.8 1074,-32.8 8,-32.8"/>
</g>
<g id="clust8" class="cluster">
<title>cluster_AppModule_bootstrap</title>
<polygon fill="none" stroke="black" points="486,-170.8 486,-222.8 610,-222.8 610,-170.8 486,-170.8"/>
</g>
<g id="clust2" class="cluster">
<title>cluster_AppModule_declarations</title>
<polygon fill="none" stroke="black" points="679,-40.8 679,-92.8 1066,-92.8 1066,-40.8 679,-40.8"/>
</g>
<g id="clust6" class="cluster">
<title>cluster_AppModule_imports</title>
<polygon fill="none" stroke="black" points="16,-40.8 16,-92.8 671,-92.8 671,-40.8 16,-40.8"/>
</g>
<!-- AppComponent -->
<g id="node1" class="node">
<title>AppComponent</title>
<polygon fill="#ffffb3" stroke="black" points="1057.94,-84.8 952.06,-84.8 952.06,-48.8 1057.94,-48.8 1057.94,-84.8"/>
<text text-anchor="middle" x="1005" y="-62.6" font-family="Times,serif" font-size="14.00">AppComponent</text>
</g>
<!-- AppModule -->
<g id="node4" class="node">
<title>AppModule</title>
<polygon fill="#8dd3c7" stroke="black" points="589.66,-149.8 586.66,-153.8 565.66,-153.8 562.66,-149.8 506.34,-149.8 506.34,-113.8 589.66,-113.8 589.66,-149.8"/>
<text text-anchor="middle" x="548" y="-127.6" font-family="Times,serif" font-size="14.00">AppModule</text>
</g>
<!-- AppComponent&#45;&gt;AppModule -->
<g id="edge1" class="edge">
<title>AppComponent&#45;&gt;AppModule</title>
<path fill="none" stroke="black" d="M1005,-85.09C1005,-107.01 1005,-140.8 1005,-140.8 1005,-140.8 599.77,-140.8 599.77,-140.8"/>
<polygon fill="black" stroke="black" points="599.77,-137.3 589.77,-140.8 599.77,-144.3 599.77,-137.3"/>
</g>
<!-- HomeComponent -->
<g id="node2" class="node">
<title>HomeComponent</title>
<polygon fill="#ffffb3" stroke="black" points="934.55,-84.8 819.45,-84.8 819.45,-48.8 934.55,-48.8 934.55,-84.8"/>
<text text-anchor="middle" x="877" y="-62.6" font-family="Times,serif" font-size="14.00">HomeComponent</text>
</g>
<!-- HomeComponent&#45;&gt;AppModule -->
<g id="edge2" class="edge">
<title>HomeComponent&#45;&gt;AppModule</title>
<path fill="none" stroke="black" d="M877,-84.91C877,-104.14 877,-131.8 877,-131.8 877,-131.8 599.67,-131.8 599.67,-131.8"/>
<polygon fill="black" stroke="black" points="599.67,-128.3 589.67,-131.8 599.67,-135.3 599.67,-128.3"/>
</g>
<!-- MenuComponent -->
<g id="node3" class="node">
<title>MenuComponent</title>
<polygon fill="#ffffb3" stroke="black" points="800.99,-84.8 687.01,-84.8 687.01,-48.8 800.99,-48.8 800.99,-84.8"/>
<text text-anchor="middle" x="744" y="-62.6" font-family="Times,serif" font-size="14.00">MenuComponent</text>
</g>
<!-- MenuComponent&#45;&gt;AppModule -->
<g id="edge3" class="edge">
<title>MenuComponent&#45;&gt;AppModule</title>
<path fill="none" stroke="black" d="M744,-84.83C744,-101.2 744,-122.8 744,-122.8 744,-122.8 600.05,-122.8 600.05,-122.8"/>
<polygon fill="black" stroke="black" points="600.05,-119.3 590.05,-122.8 600.05,-126.3 600.05,-119.3"/>
</g>
<!-- AppComponent  -->
<g id="node10" class="node">
<title>AppComponent </title>
<polygon fill="#80b1d3" stroke="black" points="602.44,-214.8 493.56,-214.8 493.56,-178.8 602.44,-178.8 602.44,-214.8"/>
<text text-anchor="middle" x="548" y="-192.6" font-family="Times,serif" font-size="14.00">AppComponent </text>
</g>
<!-- AppModule&#45;&gt;AppComponent  -->
<g id="edge9" class="edge">
<title>AppModule&#45;&gt;AppComponent </title>
<path fill="none" stroke="black" stroke-dasharray="1,5" d="M548,-149.91C548,-149.91 548,-168.79 548,-168.79"/>
<polygon fill="black" stroke="black" points="544.5,-168.79 548,-178.79 551.5,-168.79 544.5,-168.79"/>
</g>
<!-- AdminModule -->
<g id="node5" class="node">
<title>AdminModule</title>
<polygon fill="#8dd3c7" stroke="black" points="663.44,-84.8 660.44,-88.8 639.44,-88.8 636.44,-84.8 564.56,-84.8 564.56,-48.8 663.44,-48.8 663.44,-84.8"/>
<text text-anchor="middle" x="614" y="-62.6" font-family="Times,serif" font-size="14.00">AdminModule</text>
</g>
<!-- AdminModule&#45;&gt;AppModule -->
<g id="edge4" class="edge">
<title>AdminModule&#45;&gt;AppModule</title>
<path fill="none" stroke="black" d="M577.3,-84.91C577.3,-84.91 577.3,-103.79 577.3,-103.79"/>
<polygon fill="black" stroke="black" points="573.8,-103.79 577.3,-113.79 580.8,-103.79 573.8,-103.79"/>
</g>
<!-- AppRoutingModule -->
<g id="node6" class="node">
<title>AppRoutingModule</title>
<polygon fill="#8dd3c7" stroke="black" points="546.27,-84.8 543.27,-88.8 522.27,-88.8 519.27,-84.8 417.73,-84.8 417.73,-48.8 546.27,-48.8 546.27,-84.8"/>
<text text-anchor="middle" x="482" y="-62.6" font-family="Times,serif" font-size="14.00">AppRoutingModule</text>
</g>
<!-- AppRoutingModule&#45;&gt;AppModule -->
<g id="edge5" class="edge">
<title>AppRoutingModule&#45;&gt;AppModule</title>
<path fill="none" stroke="black" d="M526.28,-84.91C526.28,-84.91 526.28,-103.79 526.28,-103.79"/>
<polygon fill="black" stroke="black" points="522.78,-103.79 526.28,-113.79 529.78,-103.79 522.78,-103.79"/>
</g>
<!-- ChampaingModule -->
<g id="node7" class="node">
<title>ChampaingModule</title>
<polygon fill="#8dd3c7" stroke="black" points="400.1,-84.8 397.1,-88.8 376.1,-88.8 373.1,-84.8 275.9,-84.8 275.9,-48.8 400.1,-48.8 400.1,-84.8"/>
<text text-anchor="middle" x="338" y="-62.6" font-family="Times,serif" font-size="14.00">ChampaingModule</text>
</g>
<!-- ChampaingModule&#45;&gt;AppModule -->
<g id="edge6" class="edge">
<title>ChampaingModule&#45;&gt;AppModule</title>
<path fill="none" stroke="black" d="M338,-84.83C338,-101.2 338,-122.8 338,-122.8 338,-122.8 496.26,-122.8 496.26,-122.8"/>
<polygon fill="black" stroke="black" points="496.26,-126.3 506.26,-122.8 496.26,-119.3 496.26,-126.3"/>
</g>
<!-- InfluencerModule -->
<g id="node8" class="node">
<title>InfluencerModule</title>
<polygon fill="#8dd3c7" stroke="black" points="257.57,-84.8 254.57,-88.8 233.57,-88.8 230.57,-84.8 140.43,-84.8 140.43,-48.8 257.57,-48.8 257.57,-84.8"/>
<text text-anchor="middle" x="199" y="-62.6" font-family="Times,serif" font-size="14.00">InfluencerModule</text>
</g>
<!-- InfluencerModule&#45;&gt;AppModule -->
<g id="edge7" class="edge">
<title>InfluencerModule&#45;&gt;AppModule</title>
<path fill="none" stroke="black" d="M199,-84.91C199,-104.14 199,-131.8 199,-131.8 199,-131.8 496.25,-131.8 496.25,-131.8"/>
<polygon fill="black" stroke="black" points="496.25,-135.3 506.25,-131.8 496.25,-128.3 496.25,-135.3"/>
</g>
<!-- SharedModule -->
<g id="node9" class="node">
<title>SharedModule</title>
<polygon fill="#8dd3c7" stroke="black" points="122.42,-84.8 119.42,-88.8 98.42,-88.8 95.42,-84.8 23.58,-84.8 23.58,-48.8 122.42,-48.8 122.42,-84.8"/>
<text text-anchor="middle" x="73" y="-62.6" font-family="Times,serif" font-size="14.00">SharedModule</text>
</g>
<!-- SharedModule&#45;&gt;AppModule -->
<g id="edge8" class="edge">
<title>SharedModule&#45;&gt;AppModule</title>
<path fill="none" stroke="black" d="M73,-85.09C73,-107.01 73,-140.8 73,-140.8 73,-140.8 496.26,-140.8 496.26,-140.8"/>
<polygon fill="black" stroke="black" points="496.26,-144.3 506.26,-140.8 496.26,-137.3 496.26,-144.3"/>
</g>
</g>
</svg>
