<?xml version="1.0" encoding="UTF-8" standalone="no"?>
<!DOCTYPE svg PUBLIC "-//W3C//DTD SVG 1.1//EN"
 "http://www.w3.org/Graphics/SVG/1.1/DTD/svg11.dtd">
<!-- Generated by graphviz version 2.47.3 (20210619.1520)
 -->
<!-- Title: dependencies Pages: 1 -->
<svg width="1243pt" height="247pt"
 viewBox="0.00 0.00 1243.00 246.80" xmlns="http://www.w3.org/2000/svg" xmlns:xlink="http://www.w3.org/1999/xlink">
<g id="graph0" class="graph" transform="scale(1 1) rotate(0) translate(4 242.8)">
<title>dependencies</title>
<polygon fill="white" stroke="transparent" points="-4,4 -4,-242.8 1239,-242.8 1239,4 -4,4"/>
<text text-anchor="middle" x="617.5" y="-8.2" font-family="sans-serif" font-size="14.00">dependencies</text>
<g id="clust1" class="cluster">
<title>cluster_AppModule</title>
<polygon fill="none" stroke="black" stroke-dasharray="1,5" points="8,-32.8 8,-230.8 1227,-230.8 1227,-32.8 8,-32.8"/>
</g>
<g id="clust9" class="cluster">
<title>cluster_AppModule_bootstrap</title>
<polygon fill="none" stroke="black" points="552,-170.8 552,-222.8 676,-222.8 676,-170.8 552,-170.8"/>
</g>
<g id="clust7" class="cluster">
<title>cluster_AppModule_imports</title>
<polygon fill="none" stroke="black" points="557,-40.8 557,-92.8 1219,-92.8 1219,-40.8 557,-40.8"/>
</g>
<g id="clust2" class="cluster">
<title>cluster_AppModule_declarations</title>
<polygon fill="none" stroke="black" points="16,-40.8 16,-92.8 549,-92.8 549,-40.8 16,-40.8"/>
</g>
<!-- AppComponent -->
<g id="node1" class="node">
<title>AppComponent</title>
<polygon fill="#ffffb3" stroke="black" points="540.94,-84.8 435.06,-84.8 435.06,-48.8 540.94,-48.8 540.94,-84.8"/>
<text text-anchor="middle" x="488" y="-62.6" font-family="Times,serif" font-size="14.00">AppComponent</text>
</g>
<!-- AppModule -->
<g id="node5" class="node">
<title>AppModule</title>
<polygon fill="#8dd3c7" stroke="black" points="655.66,-149.8 652.66,-153.8 631.66,-153.8 628.66,-149.8 572.34,-149.8 572.34,-113.8 655.66,-113.8 655.66,-149.8"/>
<text text-anchor="middle" x="614" y="-127.6" font-family="Times,serif" font-size="14.00">AppModule</text>
</g>
<!-- AppComponent&#45;&gt;AppModule -->
<g id="edge1" class="edge">
<title>AppComponent&#45;&gt;AppModule</title>
<path fill="none" stroke="black" d="M488,-84.81C488,-100.85 488,-121.8 488,-121.8 488,-121.8 562.04,-121.8 562.04,-121.8"/>
<polygon fill="black" stroke="black" points="562.04,-125.3 572.04,-121.8 562.04,-118.3 562.04,-125.3"/>
</g>
<!-- HomeComponent -->
<g id="node2" class="node">
<title>HomeComponent</title>
<polygon fill="#ffffb3" stroke="black" points="417.55,-84.8 302.45,-84.8 302.45,-48.8 417.55,-48.8 417.55,-84.8"/>
<text text-anchor="middle" x="360" y="-62.6" font-family="Times,serif" font-size="14.00">HomeComponent</text>
</g>
<!-- HomeComponent&#45;&gt;AppModule -->
<g id="edge2" class="edge">
<title>HomeComponent&#45;&gt;AppModule</title>
<path fill="none" stroke="black" d="M360,-85.07C360,-103.36 360,-128.8 360,-128.8 360,-128.8 562.34,-128.8 562.34,-128.8"/>
<polygon fill="black" stroke="black" points="562.34,-132.3 572.34,-128.8 562.34,-125.3 562.34,-132.3"/>
</g>
<!-- MenuComponent -->
<g id="node3" class="node">
<title>MenuComponent</title>
<polygon fill="#ffffb3" stroke="black" points="283.99,-84.8 170.01,-84.8 170.01,-48.8 283.99,-48.8 283.99,-84.8"/>
<text text-anchor="middle" x="227" y="-62.6" font-family="Times,serif" font-size="14.00">MenuComponent</text>
</g>
<!-- MenuComponent&#45;&gt;AppModule -->
<g id="edge3" class="edge">
<title>MenuComponent&#45;&gt;AppModule</title>
<path fill="none" stroke="black" d="M227,-84.93C227,-105.37 227,-135.8 227,-135.8 227,-135.8 562.22,-135.8 562.22,-135.8"/>
<polygon fill="black" stroke="black" points="562.22,-139.3 572.22,-135.8 562.22,-132.3 562.22,-139.3"/>
</g>
<!-- SecurityComponent -->
<g id="node4" class="node">
<title>SecurityComponent</title>
<polygon fill="#ffffb3" stroke="black" points="151.99,-84.8 24.01,-84.8 24.01,-48.8 151.99,-48.8 151.99,-84.8"/>
<text text-anchor="middle" x="88" y="-62.6" font-family="Times,serif" font-size="14.00">SecurityComponent</text>
</g>
<!-- SecurityComponent&#45;&gt;AppModule -->
<g id="edge4" class="edge">
<title>SecurityComponent&#45;&gt;AppModule</title>
<path fill="none" stroke="black" d="M88,-84.81C88,-107.29 88,-142.8 88,-142.8 88,-142.8 562.29,-142.8 562.29,-142.8"/>
<polygon fill="black" stroke="black" points="562.29,-146.3 572.29,-142.8 562.29,-139.3 562.29,-146.3"/>
</g>
<!-- AppComponent  -->
<g id="node11" class="node">
<title>AppComponent </title>
<polygon fill="#80b1d3" stroke="black" points="668.44,-214.8 559.56,-214.8 559.56,-178.8 668.44,-178.8 668.44,-214.8"/>
<text text-anchor="middle" x="614" y="-192.6" font-family="Times,serif" font-size="14.00">AppComponent </text>
</g>
<!-- AppModule&#45;&gt;AppComponent  -->
<g id="edge10" class="edge">
<title>AppModule&#45;&gt;AppComponent </title>
<path fill="none" stroke="black" stroke-dasharray="1,5" d="M614,-149.91C614,-149.91 614,-168.79 614,-168.79"/>
<polygon fill="black" stroke="black" points="610.5,-168.79 614,-178.79 617.5,-168.79 610.5,-168.79"/>
</g>
<!-- AppRoutingModule -->
<g id="node6" class="node">
<title>AppRoutingModule</title>
<polygon fill="#8dd3c7" stroke="black" points="1211.27,-84.8 1208.27,-88.8 1187.27,-88.8 1184.27,-84.8 1082.73,-84.8 1082.73,-48.8 1211.27,-48.8 1211.27,-84.8"/>
<text text-anchor="middle" x="1147" y="-62.6" font-family="Times,serif" font-size="14.00">AppRoutingModule</text>
</g>
<!-- AppRoutingModule&#45;&gt;AppModule -->
<g id="edge5" class="edge">
<title>AppRoutingModule&#45;&gt;AppModule</title>
<path fill="none" stroke="black" d="M1147,-84.81C1147,-107.29 1147,-142.8 1147,-142.8 1147,-142.8 665.82,-142.8 665.82,-142.8"/>
<polygon fill="black" stroke="black" points="665.82,-139.3 655.82,-142.8 665.82,-146.3 665.82,-139.3"/>
</g>
<!-- ChampaingModule -->
<g id="node7" class="node">
<title>ChampaingModule</title>
<polygon fill="#8dd3c7" stroke="black" points="1065.1,-84.8 1062.1,-88.8 1041.1,-88.8 1038.1,-84.8 940.9,-84.8 940.9,-48.8 1065.1,-48.8 1065.1,-84.8"/>
<text text-anchor="middle" x="1003" y="-62.6" font-family="Times,serif" font-size="14.00">ChampaingModule</text>
</g>
<!-- ChampaingModule&#45;&gt;AppModule -->
<g id="edge6" class="edge">
<title>ChampaingModule&#45;&gt;AppModule</title>
<path fill="none" stroke="black" d="M1003,-84.93C1003,-105.37 1003,-135.8 1003,-135.8 1003,-135.8 666,-135.8 666,-135.8"/>
<polygon fill="black" stroke="black" points="666,-132.3 656,-135.8 666,-139.3 666,-132.3"/>
</g>
<!-- InfluencerModule -->
<g id="node8" class="node">
<title>InfluencerModule</title>
<polygon fill="#8dd3c7" stroke="black" points="922.57,-84.8 919.57,-88.8 898.57,-88.8 895.57,-84.8 805.43,-84.8 805.43,-48.8 922.57,-48.8 922.57,-84.8"/>
<text text-anchor="middle" x="864" y="-62.6" font-family="Times,serif" font-size="14.00">InfluencerModule</text>
</g>
<!-- InfluencerModule&#45;&gt;AppModule -->
<g id="edge7" class="edge">
<title>InfluencerModule&#45;&gt;AppModule</title>
<path fill="none" stroke="black" d="M864,-85.07C864,-103.36 864,-128.8 864,-128.8 864,-128.8 665.84,-128.8 665.84,-128.8"/>
<polygon fill="black" stroke="black" points="665.84,-125.3 655.84,-128.8 665.84,-132.3 665.84,-125.3"/>
</g>
<!-- SecurityModule -->
<g id="node9" class="node">
<title>SecurityModule</title>
<polygon fill="#8dd3c7" stroke="black" points="787.2,-84.8 784.2,-88.8 763.2,-88.8 760.2,-84.8 680.8,-84.8 680.8,-48.8 787.2,-48.8 787.2,-84.8"/>
<text text-anchor="middle" x="734" y="-62.6" font-family="Times,serif" font-size="14.00">SecurityModule</text>
</g>
<!-- SecurityModule&#45;&gt;AppModule -->
<g id="edge8" class="edge">
<title>SecurityModule&#45;&gt;AppModule</title>
<path fill="none" stroke="black" d="M734,-84.81C734,-100.85 734,-121.8 734,-121.8 734,-121.8 665.97,-121.8 665.97,-121.8"/>
<polygon fill="black" stroke="black" points="665.97,-118.3 655.97,-121.8 665.97,-125.3 665.97,-118.3"/>
</g>
<!-- SharedModule -->
<g id="node10" class="node">
<title>SharedModule</title>
<polygon fill="#8dd3c7" stroke="black" points="663.42,-84.8 660.42,-88.8 639.42,-88.8 636.42,-84.8 564.58,-84.8 564.58,-48.8 663.42,-48.8 663.42,-84.8"/>
<text text-anchor="middle" x="614" y="-62.6" font-family="Times,serif" font-size="14.00">SharedModule</text>
</g>
<!-- SharedModule&#45;&gt;AppModule -->
<g id="edge9" class="edge">
<title>SharedModule&#45;&gt;AppModule</title>
<path fill="none" stroke="black" d="M614,-84.91C614,-84.91 614,-103.79 614,-103.79"/>
<polygon fill="black" stroke="black" points="610.5,-103.79 614,-113.79 617.5,-103.79 610.5,-103.79"/>
</g>
</g>
</svg>
