<?xml version="1.0" encoding="UTF-8" standalone="no"?>
<!DOCTYPE svg PUBLIC "-//W3C//DTD SVG 1.1//EN"
 "http://www.w3.org/Graphics/SVG/1.1/DTD/svg11.dtd">
<!-- Generated by graphviz version 2.47.3 (20210619.1520)
 -->
<!-- Title: dependencies Pages: 1 -->
<svg width="158pt" height="174pt"
 viewBox="0.00 0.00 158.00 173.80" xmlns="http://www.w3.org/2000/svg" xmlns:xlink="http://www.w3.org/1999/xlink">
<g id="graph0" class="graph" transform="scale(1 1) rotate(0) translate(4 169.8)">
<title>dependencies</title>
<polygon fill="white" stroke="transparent" points="-4,4 -4,-169.8 154,-169.8 154,4 -4,4"/>
<text text-anchor="middle" x="75" y="-8.2" font-family="sans-serif" font-size="14.00">dependencies</text>
<g id="clust1" class="cluster">
<title>cluster_InfluencerModule</title>
<polygon fill="none" stroke="black" stroke-dasharray="1,5" points="8,-32.8 8,-157.8 142,-157.8 142,-32.8 8,-32.8"/>
</g>
<g id="clust3" class="cluster">
<title>cluster_InfluencerModule_imports</title>
<polygon fill="none" stroke="black" points="18,-40.8 18,-92.8 132,-92.8 132,-40.8 18,-40.8"/>
</g>
<!-- SharedModule -->
<g id="node1" class="node">
<title>SharedModule</title>
<polygon fill="#8dd3c7" stroke="black" points="124.42,-84.8 121.42,-88.8 100.42,-88.8 97.42,-84.8 25.58,-84.8 25.58,-48.8 124.42,-48.8 124.42,-84.8"/>
<text text-anchor="middle" x="75" y="-62.6" font-family="Times,serif" font-size="14.00">SharedModule</text>
</g>
<!-- InfluencerModule -->
<g id="node2" class="node">
<title>InfluencerModule</title>
<polygon fill="#8dd3c7" stroke="black" points="133.57,-149.8 130.57,-153.8 109.57,-153.8 106.57,-149.8 16.43,-149.8 16.43,-113.8 133.57,-113.8 133.57,-149.8"/>
<text text-anchor="middle" x="75" y="-127.6" font-family="Times,serif" font-size="14.00">InfluencerModule</text>
</g>
<!-- SharedModule&#45;&gt;InfluencerModule -->
<g id="edge1" class="edge">
<title>SharedModule&#45;&gt;InfluencerModule</title>
<path fill="none" stroke="black" d="M75,-84.91C75,-84.91 75,-103.79 75,-103.79"/>
<polygon fill="black" stroke="black" points="71.5,-103.79 75,-113.79 78.5,-103.79 71.5,-103.79"/>
</g>
</g>
</svg>
